<?xml version="1.0" encoding="UTF-8"?><svg id="Calque_1" xmlns="http://www.w3.org/2000/svg" viewBox="0 0 1507.64 1507.64"><path d="M753.48,676.25c.53-.15.6.14.91.35,1.66,1.13,5.29,5.2,6.87,6.88,22.95,24.33,42.54,55.54,43.99,89.96.81,19.2-6.34,36.87-22.56,47.71-32.82,21.93-77.67.03-79.91-39.35-2.12-37.31,19.48-72.22,43.99-98.32,2.21-2.36,5.07-4.52,6.71-7.23Z" style="fill:#da881d;"/><path d="M458.5,777.05c11.98-7.1,33.84-19.32,20.9-33.21-26.41-28.34-81.16-39.17-118.25-34.74-27.81,3.32-62.45,20.82-80.05,42.68-1.41,5.27,14.67,18.11,19.47,21.43,46.87,32.4,109.55,32.51,157.93,3.84Z" style="fill:#da881d;"/><path d="M754.85,483.08c11.29-1.06,31.81-41.62,35.68-52.77,10.91-31.38,10.79-70.57-1.32-101.65-4.31-11.06-24.87-50.08-38.6-46.28-44.96,41.54-53.62,113-25.08,166.33,4.3,8.03,20.77,35.18,29.32,34.38Z" style="fill:#da881d;"/><path d="M1226.37,749.33c-1.15-3.86-29.6-23.33-35.17-26.27-27.13-14.32-62.26-18.11-92.54-14.01-14.48,1.96-71.44,27.34-75.02,40.34-3.88,14.1,36.42,34.82,48.01,39.32,40.99,15.92,86.42,12.93,124.8-8.81,8.53-4.83,33.03-20.06,29.91-30.56Z" style="fill:#da881d;"/><path d="M755.02,1021.91c-11.13.02-32.82,38.97-36.78,49.21-17.72,45.83-10.6,98.74,18.8,137.97,10.89,14.53,13.04,24.4,28.87,7.72,45.18-47.61,44.13-143.42-3.79-188.44-2.3-2.16-2.73-6.58-7.1-6.47Z" style="fill:#da881d;"/><path d="M502.52,710.93c116.37,99.19,289.81-58.42,228.87-179.87-20.78-41.41-110.96-119.75-148.04-155.86-2.74-2.66-17.5-20.92-18.83-21.43-14.85-5.68-34.33,36.25-37.48,48.28-27.57,105.23,28.86,113.89,87.44,180.91,16.36,21.81-1.16,45.17-26.48,33.82-69.15-57.98-77.94-118.99-184.63-90.9-13.74,3.62-56.84,22.16-46.71,39.32,50.43,44.24,95.32,102.65,145.87,145.74Z" style="fill:#da881d;"/><path d="M1005.43,710.93c-116.37,99.19-289.81-58.42-228.87-179.87,20.78-41.41,110.96-119.75,148.04-155.86,2.74-2.66,17.5-20.92,18.83-21.43,14.85-5.68,34.33,36.25,37.48,48.28,27.57,105.23-28.86,113.89-87.44,180.91-16.36,21.81,1.16,45.17,26.48,33.82,69.15-57.98,77.94-118.99,184.63-90.9,13.74,3.62,56.84,22.16,46.71,39.32-50.43,44.24-95.32,102.65-145.87,145.74Z" style="fill:#da881d;"/><path d="M502.52,795.12c116.37-99.19,289.81,58.42,228.87,179.87-20.78,41.41-110.96,119.75-148.04,155.86-2.74,2.66-17.5,20.92-18.83,21.43-14.85,5.68-34.33-36.25-37.48-48.28-27.57-105.23,28.86-113.89,87.44-180.91,16.36-21.81-1.16-45.17-26.48-33.82-69.15,57.98-77.94,118.99-184.63,90.9-13.74-3.62-56.84-22.16-46.71-39.32,50.43-44.24,95.32-102.65,145.87-145.74Z" style="fill:#da881d;"/><path d="M1005.43,795.12c-116.37-99.19-289.81,58.42-228.87,179.87,20.78,41.41,110.96,119.75,148.04,155.86,2.74,2.66,17.5,20.92,18.83,21.43,14.85,5.68,34.33-36.25,37.48-48.28,27.57-105.23-28.86-113.89-87.44-180.91-16.36-21.81,1.16-45.17,26.48-33.82,69.15,57.98,77.94,118.99,184.63,90.9,13.74-3.62,56.84-22.16,46.71-39.32-50.43-44.24-95.32-102.65-145.87-145.74Z" style="fill:#da881d;"/></svg>