<?xml version="1.0" encoding="UTF-8"?><svg id="Calque_1" xmlns="http://www.w3.org/2000/svg" viewBox="0 0 1507.64 1507.64"><path d="M288.7,662.66c27.14-3.07,63.46.82,80.12,25.3,9.42,13.84,12.92,37.29,3.31,51.64-18.66,27.88-88.33,10.14-88.79,41.93-.51,34.47,52.36,31.32,74.61,23.59,7.14-2.48,15.1-10.45,21.46-7.28,7.86,5.97,3.15,11.08-1.21,17.23-13.78,19.45-40.11,32.3-63.65,34.66-136.25,13.69-148.07-173.25-25.85-187.08ZM264.57,766.25c5.21-2.54,4.37-8.93,8.13-13.32,14.07-16.47,57.3-10.38,61.4-38.93,2.53-17.59-5.14-30.91-23.57-33.33-48.85-6.42-59.88,49.53-45.96,85.58Z"/><path d="M1208.52,662.66c27.14-3.07,63.46.82,80.12,25.3,9.42,13.84,12.92,37.29,3.31,51.64-18.66,27.88-88.33,10.14-88.79,41.93-.51,34.47,52.36,31.32,74.61,23.59,7.14-2.48,15.1-10.45,21.46-7.28,7.86,5.97,3.15,11.08-1.21,17.23-13.78,19.45-40.11,32.3-63.65,34.66-136.25,13.69-148.07-173.25-25.85-187.08ZM1184.39,766.25c5.21-2.54,4.37-8.93,8.13-13.32,14.07-16.47,57.3-10.38,61.4-38.93,2.53-17.59-5.14-30.91-23.57-33.33-48.85-6.42-59.88,49.53-45.96,85.58Z"/><path d="M791.38,655.67c69.67-5.39,111.56,42.72,104.93,110.76-10.42,106.87-180.78,108.56-190.57-.02-5.4-59.94,22.71-105.88,85.64-110.75ZM795.33,675.97c-28.79,5.92-33.72,63.22-32.32,86.47,1.48,24.56,14.59,78.09,49.39,61.35,25.15-12.1,28.44-66.05,26.61-90.13-1.77-23.26-13.28-63.95-43.68-57.7Z"/><path d="M703.59,824.78c1.78,12.78-12.3,16.96-22.4,19.41-21.11,5.13-58.59,3.86-63.13-23.05-3.57-61.77,3.05-126.17-.41-187.63-.67-11.85-1.67-30.79-9.24-39.84-7.19-8.6-22.71-8.54-19.66-21.1.81-3.33,58.57-21.06,65.25-21.25,9.88-.27,21.31,7.03,22.89,16.99l.61,234.44c2.52,13.76,12.29,20.96,26.09,22.03Z"/><path d="M998.83,683.67c21.59-25.49,69.98-37.4,98.23-17.24,19.99,14.27,22.68,49.45-4.33,56.72-32.05,8.63-34.13-32.25-48.87-38.42-15.76-6.6-30.68,3.84-37.67,17.54-9.5,18.61-9.51,71.28-7.36,92.77,1.23,12.29,4.86,18.96,14.46,26.45,5.63,4.39,22.56,8.74,15.31,19.65-1.87,2.82-10.79,3.79-14.35,4.08-23.93,1.94-66.44,1.97-90.34,0-8.17-.67-19.06-1.92-14.26-12.32,2.26-4.91,10.55-6.89,14.35-10.24,10.76-9.49,14.18-14.79,15.44-29.57,1.56-18.18,2.02-61.65-.99-78.87-3.96-22.63-18.84-17.97-25.59-27.79-6.66-9.7,18.68-15.93,26.07-18.52,23.65-8.3,60.14-23.59,59.89,15.76Z"/><path d="M584.77,798.14c-2.96,28.77-45.14,46.73-70.74,49.01-123.64,11.04-145.35-158.49-37.43-186.54,40.71-10.58,115.76,3.51,107.99,58.65-3.9,27.69-44.26,27.33-50.13-.73-3.2-15.31,3.43-41.34-17.64-47.81-34.33-10.55-51.68,26.59-53.03,54.78-1.42,29.45,12.99,65.31,41.1,77.71,30.76,13.57,50.09,1.82,79.89-5.06Z"/><g style="opacity:.13;"><path d="M753.53,689.03c.44-.12.5.12.76.29,1.38.95,4.42,4.34,5.74,5.75,19.17,20.32,35.52,46.39,36.74,75.13.68,16.04-5.29,30.79-18.84,39.85-27.41,18.32-64.87.03-66.74-32.86-1.77-31.16,16.27-60.31,36.74-82.11,1.85-1.97,4.24-3.77,5.6-6.04Z"/><path d="M507.17,773.22c10.01-5.93,28.26-16.13,17.45-27.74-22.05-23.67-67.79-32.72-98.76-29.01-23.23,2.78-52.16,17.38-66.86,35.65-1.17,4.4,12.25,15.12,16.26,17.9,39.15,27.06,91.49,27.15,131.9,3.21Z"/><path d="M754.68,527.71c9.43-.88,26.56-34.76,29.8-44.07,9.11-26.21,9.01-58.94-1.1-84.9-3.6-9.24-20.77-41.83-32.24-38.65-37.55,34.69-44.78,94.37-20.95,138.91,3.59,6.71,17.35,29.38,24.49,28.71Z"/><path d="M1148.48,750.07c-.96-3.23-24.72-19.49-29.37-21.94-22.66-11.96-52-15.12-77.29-11.7-12.09,1.64-59.67,22.83-62.66,33.69-3.24,11.78,30.42,29.08,40.1,32.84,34.23,13.29,72.17,10.8,104.23-7.36,7.12-4.03,27.59-16.75,24.98-25.52Z"/><path d="M754.82,977.72c-9.3.01-27.41,32.55-30.71,41.1-14.8,38.27-8.85,82.46,15.7,115.23,9.09,12.13,10.89,20.37,24.11,6.45,37.73-39.76,36.86-119.78-3.17-157.38-1.92-1.81-2.28-5.49-5.93-5.4Z"/><path d="M543.94,718c97.19,82.84,242.04-48.79,191.15-150.22-17.36-34.59-92.67-100.01-123.64-130.17-2.29-2.23-14.61-17.47-15.73-17.9-12.4-4.74-28.67,30.28-31.3,40.32-23.02,87.88,24.1,95.12,73.03,151.09,13.66,18.21-.97,37.72-22.11,28.25-57.76-48.43-65.1-99.38-154.2-75.92-11.48,3.02-47.47,18.5-39.01,32.84,42.12,36.95,79.61,85.73,121.82,121.72Z"/><path d="M963.96,718c-97.19,82.84-242.04-48.79-191.15-150.22,17.36-34.59,92.67-100.01,123.64-130.17,2.29-2.23,14.61-17.47,15.73-17.9,12.4-4.74,28.67,30.28,31.3,40.32,23.02,87.88-24.1,95.12-73.03,151.09-13.66,18.21.97,37.72,22.11,28.25,57.76-48.43,65.1-99.38,154.2-75.92,11.48,3.02,47.47,18.5,39.01,32.84-42.12,36.95-79.61,85.73-121.82,121.72Z"/><path d="M543.94,788.32c97.19-82.84,242.04,48.79,191.15,150.22-17.36,34.59-92.67,100.01-123.64,130.17-2.29,2.23-14.61,17.47-15.73,17.9-12.4,4.74-28.67-30.28-31.3-40.32-23.02-87.88,24.1-95.12,73.03-151.09,13.66-18.21-.97-37.72-22.11-28.25-57.76,48.43-65.1,99.38-154.2,75.92-11.48-3.02-47.47-18.5-39.01-32.84,42.12-36.95,79.61-85.73,121.82-121.72Z"/><path d="M963.96,788.32c-97.19-82.84-242.04,48.79-191.15,150.22,17.36,34.59,92.67,100.01,123.64,130.17,2.29,2.23,14.61,17.47,15.73,17.9,12.4,4.74,28.67-30.28,31.3-40.32,23.02-87.88-24.1-95.12-73.03-151.09-13.66-18.21.97-37.72,22.11-28.25,57.76,48.43,65.1,99.38,154.2,75.92,11.48-3.02,47.47-18.5,39.01-32.84-42.12-36.95-79.61-85.73-121.82-121.72Z"/></g><path d="M453.8,922.53c-2.39,0-4.45-.36-6.17-1.09-1.72-.73-3.04-1.57-3.95-2.52-.92-.95-1.37-1.77-1.37-2.44,0-.3.08-.62.25-.95.17-.34.38-.61.64-.81.26-.21.52-.31.78-.31.37,0,.76.23,1.15.7.39.47.92,1.01,1.57,1.63.65.62,1.52,1.16,2.61,1.63,1.08.47,2.5.7,4.26.7s3.25-.29,4.48-.87c1.23-.58,2.19-1.44,2.86-2.58.67-1.14,1.01-2.57,1.01-4.29s-.34-3.23-1.01-4.32c-.67-1.08-1.56-1.98-2.66-2.69-1.1-.71-2.31-1.31-3.62-1.79-1.31-.49-2.63-.99-3.95-1.51-1.33-.52-2.55-1.17-3.67-1.93-1.12-.77-2.02-1.77-2.69-3.03-.67-1.25-1.01-2.85-1.01-4.79s.37-3.69,1.12-5.02c.75-1.33,1.71-2.36,2.89-3.11,1.18-.75,2.46-1.28,3.84-1.6,1.38-.32,2.73-.48,4.04-.48,1.05,0,2.12.08,3.22.25,1.1.17,2.12.4,3.05.7.93.3,1.69.66,2.27,1.09.58.43.87.91.87,1.43,0,.22-.07.5-.2.81-.13.32-.31.61-.53.87-.22.26-.52.39-.9.39-.34,0-.8-.18-1.4-.53-.6-.36-1.41-.71-2.44-1.07-1.03-.35-2.36-.53-4.01-.53-1.35,0-2.64.19-3.9.56-1.25.37-2.27,1.04-3.06,1.99s-1.18,2.25-1.18,3.9c0,1.5.35,2.7,1.04,3.62.69.92,1.59,1.65,2.69,2.21,1.1.56,2.31,1.07,3.62,1.54s2.63.99,3.95,1.57c1.33.58,2.54,1.31,3.64,2.19,1.1.88,1.99,2.03,2.66,3.45.67,1.42,1.01,3.25,1.01,5.49,0,2.65-.5,4.83-1.51,6.53-1.01,1.7-2.4,2.96-4.18,3.78-1.78.82-3.82,1.23-6.14,1.23Z"/><path d="M483.45,922.47c-2.17,0-4.13-.39-5.89-1.18-1.76-.79-3.16-2.05-4.2-3.81-1.05-1.76-1.57-4.09-1.57-7.01v-17.32c0-2.91.52-5.25,1.57-7.01,1.05-1.76,2.45-3.03,4.2-3.81,1.76-.78,3.72-1.18,5.89-1.18s4.18.39,5.94,1.18,3.16,2.06,4.2,3.81c1.05,1.76,1.57,4.09,1.57,7.01v17.32c0,2.92-.52,5.25-1.57,7.01-1.05,1.76-2.45,3.03-4.2,3.81-1.76.78-3.74,1.18-5.94,1.18ZM483.45,919.05c2.5,0,4.46-.69,5.86-2.07,1.4-1.38,2.1-3.55,2.1-6.5v-17.32c0-2.95-.71-5.12-2.13-6.5-1.42-1.38-3.36-2.07-5.83-2.07s-4.45.69-5.83,2.07c-1.38,1.38-2.07,3.55-2.07,6.5v17.32c0,2.95.7,5.12,2.1,6.5,1.4,1.38,3.34,2.07,5.8,2.07Z"/><path d="M505.09,922.14c-.49,0-.92-.12-1.29-.36-.37-.24-.56-.61-.56-1.09v-38.12c0-.37.14-.69.42-.95.28-.26.66-.41,1.15-.45h10.31c2.17,0,4.13.39,5.89,1.18,1.76.78,3.14,2.05,4.15,3.78s1.51,4.05,1.51,6.92v.56c0,2.91-.51,5.25-1.54,7.01-1.03,1.76-2.43,3.03-4.2,3.81s-3.75,1.18-5.91,1.18h-8.07v15.08c0,.49-.2.85-.59,1.09-.39.24-.81.36-1.26.36ZM506.93,902.35h8.07c2.5,0,4.46-.7,5.86-2.1,1.4-1.4,2.1-3.56,2.1-6.47v-.62c0-2.91-.7-5.07-2.1-6.47-1.4-1.4-3.35-2.1-5.86-2.1h-8.07v17.77Z"/><path d="M534.62,922.14c-.49,0-.92-.12-1.29-.36-.37-.24-.56-.61-.56-1.09v-38.12c0-.49.19-.84.56-1.07.37-.22.8-.34,1.29-.34.45,0,.87.11,1.26.34.39.22.59.58.59,1.07v16.7h16.2v-16.7c0-.49.19-.84.56-1.07.37-.22.8-.34,1.29-.34.45,0,.87.11,1.26.34.39.22.59.58.59,1.07v38.12c0,.49-.2.85-.59,1.09-.39.24-.81.36-1.26.36-.49,0-.92-.12-1.29-.36-.37-.24-.56-.61-.56-1.09v-18.16h-16.2v18.16c0,.49-.2.85-.59,1.09-.39.24-.81.36-1.26.36Z"/><path d="M586.31,922.25c-.41,0-.78-.21-1.12-.64-.34-.43-.62-.87-.84-1.32l-8.63-16.82h-7.12v17.21c0,.49-.2.85-.59,1.09-.39.24-.81.36-1.26.36-.49,0-.92-.12-1.29-.36-.37-.24-.56-.61-.56-1.09v-38.12c0-.37.13-.69.39-.95.26-.26.6-.41,1.01-.45h9.92c2.2,0,4.22.34,6.05,1.01,1.83.67,3.3,1.81,4.4,3.42,1.1,1.61,1.65,3.81,1.65,6.61,0,2.32-.38,4.22-1.15,5.72-.77,1.5-1.81,2.64-3.14,3.45-1.33.8-2.81,1.35-4.46,1.65l8.63,16.59c.11.11.18.23.2.36.02.13.03.25.03.36,0,.3-.1.6-.31.9-.21.3-.48.54-.81.73-.34.19-.67.28-1.01.28ZM568.59,900.28h7.62c2.5,0,4.53-.61,6.08-1.82,1.55-1.21,2.33-3.22,2.33-6.03s-.78-4.86-2.33-6.05c-1.55-1.2-3.58-1.79-6.08-1.79h-7.62v15.7Z"/><path d="M605.7,922.47c-2.17,0-4.13-.39-5.89-1.18-1.76-.79-3.16-2.05-4.2-3.81-1.05-1.76-1.57-4.09-1.57-7.01v-17.32c0-2.91.52-5.25,1.57-7.01,1.05-1.76,2.45-3.03,4.2-3.81,1.76-.78,3.72-1.18,5.89-1.18s4.18.39,5.94,1.18,3.16,2.06,4.2,3.81c1.05,1.76,1.57,4.09,1.57,7.01v17.32c0,2.92-.52,5.25-1.57,7.01-1.05,1.76-2.45,3.03-4.2,3.81-1.76.78-3.74,1.18-5.94,1.18ZM605.7,919.05c2.5,0,4.46-.69,5.86-2.07,1.4-1.38,2.1-3.55,2.1-6.5v-17.32c0-2.95-.71-5.12-2.13-6.5-1.42-1.38-3.36-2.07-5.83-2.07s-4.45.69-5.83,2.07c-1.38,1.38-2.07,3.55-2.07,6.5v17.32c0,2.95.7,5.12,2.1,6.5,1.4,1.38,3.34,2.07,5.8,2.07Z"/><path d="M627.17,922.14c-.41,0-.79-.12-1.15-.36-.35-.24-.53-.61-.53-1.09v-38.12c0-.49.19-.84.56-1.07.37-.22.8-.34,1.29-.34.45,0,.87.11,1.26.34.39.22.59.58.59,1.07v36.15h15.97c.45,0,.77.18.95.53.19.36.28.74.28,1.15,0,.45-.09.85-.28,1.21-.19.36-.5.53-.95.53h-17.99Z"/><path d="M661.53,922.47c-2.17,0-4.13-.39-5.89-1.18-1.76-.79-3.16-2.05-4.2-3.81-1.05-1.76-1.57-4.09-1.57-7.01v-17.32c0-2.91.52-5.25,1.57-7.01,1.05-1.76,2.45-3.03,4.2-3.81,1.76-.78,3.72-1.18,5.89-1.18s4.18.39,5.94,1.18,3.16,2.06,4.2,3.81c1.05,1.76,1.57,4.09,1.57,7.01v17.32c0,2.92-.52,5.25-1.57,7.01-1.05,1.76-2.45,3.03-4.2,3.81-1.76.78-3.74,1.18-5.94,1.18ZM661.53,919.05c2.5,0,4.46-.69,5.86-2.07,1.4-1.38,2.1-3.55,2.1-6.5v-17.32c0-2.95-.71-5.12-2.13-6.5-1.42-1.38-3.36-2.07-5.83-2.07s-4.45.69-5.83,2.07c-1.38,1.38-2.07,3.55-2.07,6.5v17.32c0,2.95.7,5.12,2.1,6.5,1.4,1.38,3.34,2.07,5.8,2.07Z"/><path d="M692.53,922.47c-2.17,0-4.13-.39-5.89-1.18-1.76-.79-3.16-2.05-4.2-3.81-1.05-1.76-1.57-4.09-1.57-7.01v-17.32c0-2.91.52-5.25,1.57-7.01,1.05-1.76,2.44-3.03,4.18-3.81,1.74-.78,3.69-1.18,5.86-1.18,2.39,0,4.47.42,6.22,1.26,1.76.84,3.12,1.99,4.09,3.45.97,1.46,1.46,3.14,1.46,5.04,0,.67-.17,1.15-.5,1.43-.34.28-.78.42-1.35.42-.52,0-.96-.11-1.32-.34-.36-.22-.55-.58-.59-1.06-.15-1.42-.54-2.63-1.18-3.64-.64-1.01-1.51-1.78-2.64-2.33-1.12-.54-2.5-.81-4.15-.81-2.5,0-4.45.7-5.83,2.1-1.38,1.4-2.07,3.56-2.07,6.47v17.32c0,2.92.69,5.07,2.07,6.47,1.38,1.4,3.33,2.1,5.83,2.1s4.46-.7,5.86-2.1,2.1-3.56,2.1-6.47v-6.67h-7.46c-.45,0-.79-.16-1.04-.48-.24-.32-.36-.68-.36-1.09s.12-.78.36-1.12c.24-.34.59-.5,1.04-.5h9.81c.45,0,.79.15,1.04.45.24.3.36.65.36,1.06v8.35c0,2.92-.52,5.25-1.57,7.01-1.05,1.76-2.45,3.03-4.2,3.81-1.76.78-3.74,1.18-5.94,1.18Z"/><path d="M713.55,922.14c-.49,0-.92-.12-1.29-.36-.37-.24-.56-.61-.56-1.09v-38.12c0-.49.19-.84.56-1.07.37-.22.8-.34,1.29-.34.45,0,.87.11,1.26.34.39.22.59.58.59,1.07v38.12c0,.49-.2.85-.59,1.09-.39.24-.81.36-1.26.36Z"/><path d="M725.6,922.14c-.41,0-.79-.12-1.15-.36-.35-.24-.53-.61-.53-1.09v-38.06c0-.49.18-.85.53-1.09.36-.24.74-.36,1.15-.36h19.96c.48,0,.84.18,1.06.53.22.36.34.74.34,1.15,0,.45-.12.85-.36,1.21-.24.36-.59.53-1.04.53h-17.94v15.42h8.8c.45,0,.79.17,1.04.5.24.34.36.73.36,1.18,0,.37-.11.73-.34,1.06-.22.34-.58.5-1.07.5h-8.8v15.47h17.94c.45,0,.79.17,1.04.5.24.34.36.75.36,1.23,0,.41-.11.79-.34,1.15-.22.36-.58.53-1.06.53h-19.96Z"/><path d="M774.81,922.47c-2.09,0-4.04-.39-5.83-1.18-1.79-.79-3.21-2.05-4.26-3.81-1.05-1.76-1.57-4.09-1.57-7.01v-17.32c0-2.91.54-5.25,1.63-7.01,1.08-1.76,2.51-3.03,4.29-3.81s3.73-1.18,5.86-1.18c2.47,0,4.56.43,6.28,1.29,1.72.86,3.04,2,3.95,3.42.92,1.42,1.37,2.99,1.37,4.71,0,.9-.16,1.49-.48,1.77-.32.28-.78.42-1.37.42-.67,0-1.15-.14-1.43-.42s-.44-.61-.48-.98c0-.6-.1-1.28-.31-2.05-.21-.77-.58-1.51-1.12-2.24-.54-.73-1.33-1.33-2.35-1.79-1.03-.47-2.36-.7-4.01-.7-2.62,0-4.62.7-6,2.1-1.38,1.4-2.07,3.56-2.07,6.47v17.32c0,2.95.7,5.12,2.1,6.5,1.4,1.38,3.45,2.07,6.14,2.07,1.68,0,3.01-.23,3.98-.7.97-.47,1.7-1.05,2.19-1.74.48-.69.83-1.44,1.04-2.24.2-.8.34-1.54.42-2.21.07-.48.25-.85.53-1.09.28-.24.72-.36,1.32-.36.63,0,1.11.16,1.43.48.32.32.48.92.48,1.82,0,1.68-.47,3.24-1.4,4.68-.93,1.44-2.27,2.6-4.01,3.47-1.74.88-3.84,1.32-6.31,1.32Z"/><path d="M792.02,922.14c-.3,0-.62-.06-.95-.2-.34-.13-.62-.32-.84-.56-.22-.24-.34-.51-.34-.81,0-.15.02-.28.06-.39l11.72-38c.15-.49.43-.83.84-1.04s.86-.31,1.35-.31c.52,0,1,.11,1.43.34.43.22.7.56.81,1.01l11.66,38c.04.11.06.22.06.34,0,.3-.11.57-.34.81-.22.24-.5.44-.84.59-.34.15-.69.22-1.06.22-.3,0-.58-.07-.84-.22-.26-.15-.45-.39-.56-.73l-2.58-8.63h-15.47l-2.58,8.63c-.11.34-.3.58-.56.73-.26.15-.58.22-.95.22ZM797.01,909.36h13.62l-6.78-22.59-6.84,22.59Z"/><path d="M830.36,922.14c-.45,0-.87-.12-1.26-.36-.39-.24-.59-.61-.59-1.09v-14.24c0-.19-.04-.34-.11-.45l-11.6-22.25c-.08-.19-.14-.36-.2-.53-.06-.17-.08-.33-.08-.48,0-.3.11-.57.34-.81.22-.24.5-.43.81-.56.32-.13.63-.2.93-.2s.57.09.81.28c.24.19.46.47.64.84l10.31,20.46,10.37-20.46c.22-.37.45-.65.67-.84.22-.19.49-.28.78-.28.34,0,.65.07.95.2.3.13.55.32.76.56.2.24.31.51.31.81,0,.15-.02.31-.06.48-.04.17-.09.35-.17.53l-11.66,22.25c-.07.11-.11.26-.11.45v14.24c0,.49-.19.85-.56,1.09-.37.24-.8.36-1.29.36Z"/><path d="M860.13,922.47c-2.09,0-4.04-.39-5.83-1.18-1.79-.79-3.21-2.05-4.26-3.81-1.05-1.76-1.57-4.09-1.57-7.01v-17.32c0-2.91.54-5.25,1.63-7.01,1.08-1.76,2.51-3.03,4.29-3.81s3.73-1.18,5.86-1.18c2.47,0,4.56.43,6.28,1.29,1.72.86,3.04,2,3.95,3.42.92,1.42,1.37,2.99,1.37,4.71,0,.9-.16,1.49-.48,1.77-.32.28-.78.42-1.37.42-.67,0-1.15-.14-1.43-.42s-.44-.61-.48-.98c0-.6-.1-1.28-.31-2.05-.21-.77-.58-1.51-1.12-2.24-.54-.73-1.33-1.33-2.35-1.79-1.03-.47-2.36-.7-4.01-.7-2.62,0-4.62.7-6,2.1-1.38,1.4-2.07,3.56-2.07,6.47v17.32c0,2.95.7,5.12,2.1,6.5,1.4,1.38,3.45,2.07,6.14,2.07,1.68,0,3.01-.23,3.98-.7.97-.47,1.7-1.05,2.19-1.74.48-.69.83-1.44,1.04-2.24.2-.8.34-1.54.42-2.21.07-.48.25-.85.53-1.09.28-.24.72-.36,1.32-.36.63,0,1.11.16,1.43.48.32.32.48.92.48,1.82,0,1.68-.47,3.24-1.4,4.68-.93,1.44-2.27,2.6-4.01,3.47-1.74.88-3.84,1.32-6.31,1.32Z"/><path d="M880.03,922.14c-.41,0-.79-.12-1.15-.36-.35-.24-.53-.61-.53-1.09v-38.06c0-.49.18-.85.53-1.09.36-.24.74-.36,1.15-.36h19.96c.48,0,.84.18,1.06.53.22.36.34.74.34,1.15,0,.45-.12.85-.36,1.21-.24.36-.59.53-1.04.53h-17.94v15.42h8.8c.45,0,.79.17,1.04.5.24.34.36.73.36,1.18,0,.37-.11.73-.34,1.06-.22.34-.58.5-1.07.5h-8.8v15.47h17.94c.45,0,.79.17,1.04.5.24.34.36.75.36,1.23,0,.41-.11.79-.34,1.15-.22.36-.58.53-1.06.53h-19.96ZM887.37,874.83c-.37,0-.71-.17-1.01-.5-.3-.34-.45-.69-.45-1.06,0-.52.21-.88.62-1.06l6.28-3.42c.19-.11.34-.17.45-.17.41,0,.74.17.98.5.24.34.36.71.36,1.12,0,.56-.22.97-.67,1.23l-6,3.14c-.08.04-.17.08-.28.14-.11.06-.21.08-.28.08Z"/><path d="M908.5,922.14c-.52,0-.93-.14-1.23-.42-.3-.28-.45-.61-.45-.98v-38.17c0-.37.15-.7.45-.98.3-.28.71-.42,1.23-.42h9.92c2.2,0,4.19.39,5.97,1.18,1.77.78,3.18,2.06,4.2,3.81,1.03,1.76,1.54,4.09,1.54,7.01v16.98c0,2.91-.51,5.25-1.54,7.01-1.03,1.76-2.43,3.03-4.2,3.81-1.78.78-3.77,1.18-5.97,1.18h-9.92ZM910.52,918.72h7.9c2.5,0,4.47-.7,5.89-2.1,1.42-1.4,2.13-3.56,2.13-6.47v-16.98c0-2.91-.71-5.07-2.13-6.47-1.42-1.4-3.36-2.1-5.83-2.1h-7.96v34.14Z"/><path d="M940.06,922.14c-.49,0-.92-.12-1.29-.36-.37-.24-.56-.61-.56-1.09v-38.12c0-.49.19-.84.56-1.07.37-.22.8-.34,1.29-.34.45,0,.87.11,1.26.34.39.22.59.58.59,1.07v38.12c0,.49-.2.85-.59,1.09-.39.24-.81.36-1.26.36Z"/><path d="M952.11,922.14c-.41,0-.79-.12-1.15-.36-.35-.24-.53-.61-.53-1.09v-38.06c0-.49.18-.85.53-1.09.36-.24.74-.36,1.15-.36h19.96c.48,0,.84.18,1.06.53.22.36.34.74.34,1.15,0,.45-.12.85-.36,1.21-.24.36-.59.53-1.04.53h-17.94v15.42h8.8c.45,0,.79.17,1.04.5.24.34.36.73.36,1.18,0,.37-.11.73-.34,1.06-.22.34-.58.5-1.07.5h-8.8v15.47h17.94c.45,0,.79.17,1.04.5.24.34.36.75.36,1.23,0,.41-.11.79-.34,1.15-.22.36-.58.53-1.06.53h-19.96Z"/><path d="M980.76,922.14c-.49,0-.92-.12-1.29-.36-.37-.24-.56-.61-.56-1.09v-38.12c0-.52.19-.89.56-1.09.37-.2.8-.31,1.29-.31.45,0,.84.12,1.18.36.34.24.65.56.95.95.3.39.56.83.78,1.32l15.13,29.76v-31c0-.49.19-.84.56-1.07.37-.22.8-.34,1.29-.34.45,0,.87.11,1.26.34.39.22.59.58.59,1.07v38.12c0,.49-.2.85-.59,1.09-.39.24-.81.36-1.26.36-.52,0-1-.21-1.43-.64-.43-.43-.78-.92-1.04-1.49l-15.58-30.33v31c0,.49-.2.85-.59,1.09-.39.24-.81.36-1.26.36Z"/><path d="M1012.87,922.14c-.49,0-.92-.12-1.29-.36-.37-.24-.56-.61-.56-1.09v-38.12c0-.52.19-.89.56-1.09.37-.2.8-.31,1.29-.31.45,0,.84.12,1.18.36.34.24.65.56.95.95.3.39.56.83.78,1.32l15.13,29.76v-31c0-.49.19-.84.56-1.07.37-.22.8-.34,1.29-.34.45,0,.87.11,1.26.34.39.22.59.58.59,1.07v38.12c0,.49-.2.85-.59,1.09-.39.24-.81.36-1.26.36-.52,0-1-.21-1.43-.64-.43-.43-.78-.92-1.04-1.49l-15.58-30.33v31c0,.49-.2.85-.59,1.09-.39.24-.81.36-1.26.36Z"/><path d="M1044.82,922.14c-.41,0-.79-.12-1.15-.36-.35-.24-.53-.61-.53-1.09v-38.06c0-.49.18-.85.53-1.09.36-.24.74-.36,1.15-.36h19.96c.48,0,.84.18,1.06.53.22.36.34.74.34,1.15,0,.45-.12.85-.36,1.21-.24.36-.59.53-1.04.53h-17.94v15.42h8.8c.45,0,.79.17,1.04.5.24.34.36.73.36,1.18,0,.37-.11.73-.34,1.06-.22.34-.58.5-1.07.5h-8.8v15.47h17.94c.45,0,.79.17,1.04.5.24.34.36.75.36,1.23,0,.41-.11.79-.34,1.15-.22.36-.58.53-1.06.53h-19.96Z"/></svg>