<?xml version="1.0" encoding="UTF-8"?><svg id="Calque_1" xmlns="http://www.w3.org/2000/svg" viewBox="0 0 2000 950.45"><path d="M777.18,380.27c29.42-3.33,68.8.89,86.87,27.43,10.21,15,14.01,40.43,3.59,55.99-20.24,30.23-95.77,11-96.27,45.47-.55,37.38,56.77,33.95,80.89,25.58,7.74-2.69,16.37-11.33,23.27-7.89,8.52,6.47,3.41,12.01-1.31,18.68-14.94,21.09-43.49,35.02-69.01,37.58-147.72,14.84-160.55-187.84-28.03-202.84ZM751.02,492.58c5.65-2.75,4.74-9.68,8.81-14.45,15.25-17.85,62.12-11.25,66.57-42.21,2.74-19.08-5.57-33.51-25.55-36.14-52.97-6.96-64.92,53.7-49.83,92.79Z" style="fill:#5e7a2a;"/><path d="M1774.49,380.27c29.42-3.33,68.8.89,86.87,27.43,10.21,15,14.01,40.43,3.59,55.99-20.24,30.23-95.77,11-96.27,45.47-.55,37.38,56.77,33.95,80.89,25.58,7.74-2.69,16.37-11.33,23.27-7.89,8.52,6.47,3.41,12.01-1.31,18.68-14.94,21.09-43.49,35.02-69.01,37.58-147.72,14.84-160.55-187.84-28.03-202.84ZM1748.32,492.58c5.65-2.75,4.74-9.68,8.81-14.45,15.25-17.85,62.12-11.25,66.57-42.21,2.74-19.08-5.57-33.51-25.55-36.14-52.97-6.96-64.92,53.7-49.83,92.79Z" style="fill:#5e7a2a;"/><path d="M1322.21,372.69c75.53-5.84,120.96,46.32,113.77,120.09-11.29,115.88-196.01,117.71-206.62-.02-5.86-64.99,24.62-114.79,92.85-120.07ZM1326.49,394.7c-31.22,6.42-36.56,68.55-35.04,93.76,1.61,26.63,15.82,84.67,53.56,66.52,27.27-13.12,30.83-71.61,28.85-97.72-1.92-25.22-14.4-69.33-47.36-62.56Z" style="fill:#5e7a2a;"/><path d="M1227.02,556.04c1.93,13.86-13.34,18.39-24.29,21.05-22.89,5.56-63.53,4.19-68.44-24.99-3.87-66.97,3.3-136.8-.44-203.44-.72-12.85-1.81-33.39-10.02-43.2-7.8-9.32-24.62-9.26-21.31-22.88.88-3.61,63.5-22.84,70.74-23.04,10.71-.3,23.1,7.62,24.82,18.42l.66,254.19c2.73,14.92,13.33,22.73,28.28,23.89Z" style="fill:#5e7a2a;"/><path d="M1547.14,403.04c23.41-27.63,75.88-40.56,106.5-18.69,21.67,15.47,24.59,53.62-4.69,61.5-34.75,9.35-37.01-34.96-52.99-41.65-17.08-7.15-33.26,4.16-40.84,19.01-10.3,20.18-10.31,77.28-7.98,100.58,1.34,13.32,5.27,20.55,15.68,28.68,6.1,4.76,24.47,9.48,16.6,21.3-2.03,3.05-11.7,4.11-15.56,4.42-25.94,2.1-72.04,2.13-97.96,0-8.85-.73-20.67-2.08-15.47-13.36,2.45-5.32,11.44-7.47,15.56-11.1,11.67-10.29,15.37-16.03,16.74-32.06,1.69-19.71,2.19-66.84-1.08-85.51-4.29-24.54-20.43-19.49-27.74-30.13-7.23-10.52,20.25-17.27,28.27-20.08,25.64-9,65.2-25.57,64.94,17.08Z" style="fill:#5e7a2a;"/><path d="M1098.19,527.16c-3.21,31.19-48.95,50.66-76.7,53.14-134.06,11.97-157.59-171.84-40.59-202.25,44.14-11.47,125.51,3.8,117.08,63.59-4.23,30.02-47.99,29.63-54.36-.79-3.47-16.6,3.72-44.82-19.13-51.84-37.22-11.44-56.03,28.83-57.5,59.39-1.53,31.93,14.09,70.81,44.56,84.25,33.35,14.72,54.31,1.97,86.62-5.49Z" style="fill:#5e7a2a;"/><path d="M377.95,433.29c.29-.08.33.08.49.19.9.61,2.86,2.81,3.72,3.72,12.4,13.15,22.99,30.02,23.78,48.62.44,10.38-3.42,19.93-12.19,25.79-17.74,11.85-41.98.02-43.19-21.27-1.15-20.17,10.53-39.03,23.78-53.14,1.2-1.28,2.74-2.44,3.63-3.91Z" style="fill:#5e7a2a;"/><path d="M218.51,487.78c6.48-3.84,18.29-10.44,11.3-17.95-14.27-15.32-43.87-21.17-63.91-18.78-15.03,1.8-33.75,11.25-43.27,23.07-.76,2.85,7.93,9.79,10.53,11.58,25.33,17.51,59.21,17.57,85.36,2.08Z" style="fill:#5e7a2a;"/><path d="M378.69,328.89c6.1-.57,17.19-22.5,19.29-28.52,5.9-16.96,5.83-38.14-.71-54.94-2.33-5.98-13.44-27.07-20.86-25.01-24.3,22.45-28.98,61.08-13.56,89.9,2.32,4.34,11.23,19.01,15.85,18.58Z" style="fill:#5e7a2a;"/><path d="M633.54,472.8c-.62-2.09-16-12.61-19.01-14.2-14.66-7.74-33.65-9.79-50.02-7.57-7.83,1.06-38.61,14.78-40.55,21.8-2.1,7.62,19.69,18.82,25.95,21.25,22.15,8.6,46.71,6.99,67.45-4.76,4.61-2.61,17.85-10.84,16.17-16.52Z" style="fill:#5e7a2a;"/><path d="M378.78,620.12c-6.02,0-17.74,21.06-19.88,26.6-9.58,24.77-5.73,53.37,10.16,74.57,5.88,7.85,7.05,13.19,15.6,4.17,24.42-25.73,23.85-77.52-2.05-101.85-1.25-1.17-1.48-3.55-3.84-3.5Z" style="fill:#5e7a2a;"/><path d="M242.31,452.04c62.9,53.61,156.64-31.57,123.7-97.22-11.23-22.38-59.98-64.72-80.02-84.24-1.48-1.44-9.46-11.31-10.18-11.58-8.03-3.07-18.56,19.59-20.26,26.1-14.9,56.87,15.6,61.56,47.26,97.78,8.84,11.79-.63,24.41-14.31,18.28-37.38-31.34-42.13-64.31-99.79-49.13-7.43,1.96-30.72,11.98-25.25,21.25,27.26,23.91,51.52,55.48,78.84,78.77Z" style="fill:#5e7a2a;"/><path d="M514.12,452.04c-62.9,53.61-156.64-31.57-123.7-97.22,11.23-22.38,59.98-64.72,80.02-84.24,1.48-1.44,9.46-11.31,10.18-11.58,8.03-3.07,18.56,19.59,20.26,26.1,14.9,56.87-15.6,61.56-47.26,97.78-8.84,11.79.63,24.41,14.31,18.28,37.38-31.34,42.13-64.31,99.79-49.13,7.43,1.96,30.72,11.98,25.25,21.25-27.26,23.91-51.52,55.48-78.84,78.77Z" style="fill:#5e7a2a;"/><path d="M242.31,497.55c62.9-53.61,156.64,31.57,123.7,97.22-11.23,22.38-59.98,64.72-80.02,84.24-1.48,1.44-9.46,11.31-10.18,11.58-8.03,3.07-18.56-19.59-20.26-26.1-14.9-56.87,15.6-61.56,47.26-97.78,8.84-11.79-.63-24.41-14.31-18.28-37.38,31.34-42.13,64.31-99.79,49.13-7.43-1.96-30.72-11.98-25.25-21.25,27.26-23.91,51.52-55.48,78.84-78.77Z" style="fill:#5e7a2a;"/><path d="M514.12,497.55c-62.9-53.61-156.64,31.57-123.7,97.22,11.23,22.38,59.98,64.72,80.02,84.24,1.48,1.44,9.46,11.31,10.18,11.58,8.03,3.07,18.56-19.59,20.26-26.1,14.9-56.87-15.6-61.56-47.26-97.78-8.84-11.79.63-24.41,14.31-18.28,37.38,31.34,42.13,64.31,99.79,49.13,7.43-1.96,30.72-11.98,25.25-21.25-27.26-23.91-51.52-55.48-78.84-78.77Z" style="fill:#5e7a2a;"/></svg>