<?xml version="1.0" encoding="UTF-8"?><svg id="Calque_1" xmlns="http://www.w3.org/2000/svg" viewBox="0 0 2000 950.45"><path d="M373.54,375.21c36.55-4.14,85.47,1.1,107.92,34.08,12.69,18.64,17.4,50.23,4.46,69.56-25.14,37.55-118.97,13.66-119.6,56.48-.68,46.43,70.52,42.18,100.49,31.78,9.62-3.34,20.34-14.08,28.9-9.8,10.59,8.04,4.24,14.92-1.63,23.2-18.56,26.19-54.03,43.5-85.72,46.69-183.51,18.44-199.44-233.34-34.82-251.98ZM341.03,514.73c7.01-3.42,5.89-12.03,10.95-17.95,18.95-22.18,77.17-13.97,82.7-52.43,3.4-23.7-6.93-41.63-31.74-44.89-65.8-8.64-80.65,66.71-61.9,115.27Z"/><path d="M1612.43,375.21c36.55-4.14,85.47,1.1,107.92,34.08,12.69,18.64,17.4,50.23,4.46,69.56-25.14,37.55-118.97,13.66-119.6,56.48-.68,46.43,70.52,42.18,100.49,31.78,9.62-3.34,20.34-14.08,28.9-9.8,10.59,8.04,4.24,14.92-1.63,23.2-18.56,26.19-54.03,43.5-85.72,46.69-183.51,18.44-199.44-233.34-34.82-251.98ZM1579.92,514.73c7.01-3.42,5.89-12.03,10.95-17.95,18.95-22.18,77.17-13.97,82.7-52.43,3.4-23.7-6.93-41.63-31.74-44.89-65.8-8.64-80.65,66.71-61.9,115.27Z"/><path d="M1050.59,365.79c93.83-7.26,150.26,57.54,141.33,149.18-14.03,143.95-243.49,146.22-256.67-.02-7.28-80.73,30.58-142.6,115.35-149.16ZM1055.91,393.13c-38.78,7.97-45.42,85.15-43.53,116.47,2,33.08,19.65,105.18,66.53,82.63,33.88-16.29,38.3-88.96,35.84-121.39-2.38-31.33-17.89-86.13-58.84-77.71Z"/><path d="M932.35,593.56c2.4,17.21-16.57,22.85-30.17,26.15-28.44,6.91-78.92,5.2-85.02-31.05-4.81-83.19,4.1-169.94-.55-252.72-.9-15.96-2.25-41.48-12.44-53.66-9.69-11.58-30.58-11.51-26.48-28.42,1.09-4.49,78.88-28.37,87.88-28.62,13.31-.37,28.7,9.46,30.83,22.88l.82,315.77c3.39,18.53,16.56,28.23,35.13,29.67Z"/><path d="M1330,403.5c29.09-34.33,94.26-50.38,132.3-23.22,26.92,19.22,30.54,66.61-5.83,76.4-43.17,11.62-45.97-43.43-65.82-51.74-21.22-8.89-41.32,5.17-50.74,23.62-12.79,25.07-12.81,96-9.91,124.95,1.66,16.55,6.55,25.53,19.48,35.63,7.58,5.92,30.39,11.77,20.63,26.46-2.52,3.79-14.54,5.1-19.33,5.49-32.23,2.61-89.49,2.65-121.68,0-11-.91-25.68-2.59-19.21-16.6,3.05-6.61,14.21-9.28,19.32-13.79,14.5-12.78,19.09-19.91,20.8-39.82,2.1-24.49,2.72-83.03-1.34-106.23-5.33-30.48-25.38-24.21-34.46-37.43-8.98-13.06,25.15-21.45,35.12-24.95,31.85-11.18,81-31.77,80.67,21.22Z"/><path d="M772.3,557.68c-3.99,38.75-60.8,62.93-95.27,66.01-166.53,14.87-195.76-213.46-50.42-251.24,54.83-14.25,155.91,4.72,145.44,78.99-5.25,37.29-59.61,36.81-67.52-.98-4.32-20.62,4.62-55.68-23.76-64.4-46.24-14.21-69.61,35.81-71.43,73.78-1.91,39.67,17.5,87.96,55.36,104.66,41.43,18.28,67.47,2.44,107.6-6.82Z"/><path d="M595.9,725.22c-3.22,0-5.99-.49-8.31-1.47-2.31-.98-4.09-2.11-5.32-3.4-1.23-1.28-1.85-2.38-1.85-3.28,0-.4.11-.83.34-1.28.23-.45.52-.82.87-1.09.35-.28.7-.41,1.06-.41.5,0,1.02.31,1.55.94s1.23,1.36,2.11,2.19,2.05,1.56,3.51,2.19c1.46.63,3.37.94,5.74.94s4.38-.39,6.04-1.17c1.66-.78,2.95-1.94,3.85-3.47.91-1.53,1.36-3.46,1.36-5.78s-.45-4.35-1.36-5.81-2.1-2.67-3.59-3.62-3.11-1.76-4.87-2.42c-1.76-.65-3.54-1.33-5.32-2.04-1.79-.7-3.44-1.57-4.95-2.6-1.51-1.03-2.72-2.39-3.62-4.08-.91-1.68-1.36-3.84-1.36-6.45s.5-4.97,1.51-6.76c1.01-1.79,2.3-3.18,3.89-4.19,1.59-1.01,3.31-1.72,5.17-2.15,1.86-.43,3.67-.64,5.44-.64,1.41,0,2.85.11,4.34.34,1.48.23,2.85.54,4.11.94,1.26.4,2.28.89,3.06,1.47.78.58,1.17,1.22,1.17,1.93,0,.3-.09.67-.26,1.09s-.41.82-.72,1.17c-.3.35-.71.53-1.21.53-.45,0-1.08-.24-1.89-.72-.8-.48-1.9-.96-3.28-1.43-1.38-.48-3.18-.72-5.4-.72-1.81,0-3.56.25-5.25.76-1.69.5-3.06,1.4-4.12,2.68-1.06,1.28-1.58,3.03-1.58,5.25,0,2.01.47,3.64,1.4,4.87.93,1.23,2.14,2.23,3.62,2.98s3.11,1.45,4.87,2.08c1.76.63,3.54,1.33,5.32,2.11,1.79.78,3.42,1.76,4.91,2.94,1.48,1.18,2.68,2.73,3.59,4.64.91,1.91,1.36,4.38,1.36,7.4,0,3.57-.68,6.51-2.04,8.8-1.36,2.29-3.23,3.99-5.62,5.1-2.39,1.11-5.15,1.66-8.27,1.66Z"/><path d="M635.84,725.14c-2.92,0-5.56-.53-7.93-1.59-2.37-1.06-4.26-2.77-5.66-5.13-1.41-2.36-2.11-5.51-2.11-9.44v-23.33c0-3.92.7-7.07,2.11-9.44,1.41-2.37,3.29-4.08,5.66-5.13,2.36-1.06,5.01-1.59,7.93-1.59s5.64.53,8,1.59c2.37,1.06,4.25,2.77,5.66,5.13,1.41,2.37,2.11,5.51,2.11,9.44v23.33c0,3.93-.71,7.07-2.11,9.44-1.41,2.37-3.3,4.08-5.66,5.13-2.36,1.06-5.03,1.59-8,1.59ZM635.84,720.54c3.37,0,6-.93,7.89-2.79,1.89-1.86,2.83-4.78,2.83-8.76v-23.33c0-3.97-.96-6.89-2.87-8.76s-4.53-2.79-7.85-2.79-5.99.93-7.85,2.79c-1.86,1.86-2.79,4.78-2.79,8.76v23.33c0,3.98.94,6.9,2.83,8.76,1.89,1.86,4.49,2.79,7.82,2.79Z"/><path d="M664.98,724.69c-.66,0-1.24-.16-1.74-.49-.5-.33-.75-.82-.75-1.47v-51.34c0-.5.19-.93.57-1.28.38-.35.89-.55,1.55-.6h13.89c2.92,0,5.56.53,7.93,1.59,2.36,1.06,4.23,2.76,5.59,5.1,1.36,2.34,2.04,5.45,2.04,9.32v.75c0,3.93-.69,7.07-2.07,9.44-1.39,2.37-3.27,4.08-5.66,5.13-2.39,1.06-5.05,1.58-7.96,1.58h-10.87v20.31c0,.65-.26,1.15-.79,1.47-.53.33-1.09.49-1.7.49ZM667.47,698.04h10.87c3.37,0,6-.94,7.89-2.83,1.89-1.89,2.83-4.79,2.83-8.72v-.83c0-3.92-.94-6.83-2.83-8.72-1.89-1.89-4.52-2.83-7.89-2.83h-10.87v23.93Z"/><path d="M704.77,724.69c-.65,0-1.23-.16-1.74-.49-.5-.33-.76-.82-.76-1.47v-51.34c0-.65.25-1.13.76-1.43.5-.3,1.08-.45,1.74-.45.6,0,1.17.15,1.7.45.53.3.79.78.79,1.43v22.5h21.82v-22.5c0-.65.25-1.13.75-1.43.5-.3,1.08-.45,1.74-.45.6,0,1.17.15,1.7.45.53.3.79.78.79,1.43v51.34c0,.65-.26,1.15-.79,1.47s-1.09.49-1.7.49c-.65,0-1.23-.16-1.74-.49-.5-.33-.75-.82-.75-1.47v-24.46h-21.82v24.46c0,.65-.26,1.15-.79,1.47s-1.09.49-1.7.49Z"/><path d="M774.38,724.84c-.55,0-1.06-.29-1.51-.87-.45-.58-.83-1.17-1.13-1.77l-11.63-22.65h-9.59v23.18c0,.65-.26,1.15-.79,1.47-.53.33-1.09.49-1.7.49-.66,0-1.24-.16-1.74-.49-.5-.33-.75-.82-.75-1.47v-51.34c0-.5.18-.93.53-1.28s.8-.55,1.36-.6h13.36c2.97,0,5.69.45,8.15,1.36,2.47.91,4.44,2.44,5.93,4.61s2.23,5.13,2.23,8.91c0,3.12-.52,5.69-1.55,7.7-1.03,2.01-2.44,3.56-4.23,4.64-1.79,1.08-3.79,1.83-6,2.23l11.63,22.35c.15.15.24.31.26.49.03.18.04.34.04.49,0,.4-.14.81-.41,1.21-.28.4-.64.73-1.09.98-.45.25-.91.38-1.36.38ZM750.52,695.24h10.27c3.37,0,6.1-.82,8.19-2.45,2.09-1.63,3.13-4.34,3.13-8.12s-1.04-6.54-3.13-8.15c-2.09-1.61-4.82-2.41-8.19-2.41h-10.27v21.14Z"/><path d="M800.5,725.14c-2.92,0-5.56-.53-7.93-1.59s-4.25-2.77-5.66-5.13c-1.41-2.36-2.11-5.51-2.11-9.44v-23.33c0-3.92.7-7.07,2.11-9.44s3.3-4.08,5.66-5.13,5.01-1.59,7.93-1.59,5.63.53,8,1.59c2.36,1.06,4.25,2.77,5.66,5.13s2.11,5.51,2.11,9.44v23.33c0,3.93-.7,7.07-2.11,9.44-1.41,2.37-3.3,4.08-5.66,5.13-2.37,1.06-5.03,1.59-8,1.59ZM800.5,720.54c3.37,0,6-.93,7.89-2.79,1.89-1.86,2.83-4.78,2.83-8.76v-23.33c0-3.97-.96-6.89-2.87-8.76-1.91-1.86-4.53-2.79-7.85-2.79s-5.99.93-7.85,2.79-2.79,4.78-2.79,8.76v23.33c0,3.98.94,6.9,2.83,8.76,1.89,1.86,4.49,2.79,7.82,2.79Z"/><path d="M829.41,724.69c-.55,0-1.07-.16-1.55-.49s-.72-.82-.72-1.47v-51.34c0-.65.25-1.13.76-1.43.5-.3,1.08-.45,1.74-.45.6,0,1.17.15,1.7.45.53.3.79.78.79,1.43v48.7h21.51c.6,0,1.03.24,1.28.72.25.48.38.99.38,1.55,0,.6-.13,1.14-.38,1.62-.25.48-.68.72-1.28.72h-24.23Z"/><path d="M875.69,725.14c-2.92,0-5.56-.53-7.93-1.59s-4.25-2.77-5.66-5.13c-1.41-2.36-2.11-5.51-2.11-9.44v-23.33c0-3.92.7-7.07,2.11-9.44s3.3-4.08,5.66-5.13,5.01-1.59,7.93-1.59,5.63.53,8,1.59c2.36,1.06,4.25,2.77,5.66,5.13s2.11,5.51,2.11,9.44v23.33c0,3.93-.7,7.07-2.11,9.44-1.41,2.37-3.3,4.08-5.66,5.13-2.37,1.06-5.03,1.59-8,1.59ZM875.69,720.54c3.37,0,6-.93,7.89-2.79,1.89-1.86,2.83-4.78,2.83-8.76v-23.33c0-3.97-.96-6.89-2.87-8.76-1.91-1.86-4.53-2.79-7.85-2.79s-5.99.93-7.85,2.79-2.79,4.78-2.79,8.76v23.33c0,3.98.94,6.9,2.83,8.76,1.89,1.86,4.49,2.79,7.82,2.79Z"/><path d="M917.44,725.14c-2.92,0-5.56-.53-7.93-1.59-2.37-1.06-4.26-2.77-5.66-5.13-1.41-2.36-2.11-5.51-2.11-9.44v-23.33c0-3.92.7-7.07,2.11-9.44,1.41-2.37,3.28-4.08,5.62-5.13s4.97-1.59,7.89-1.59c3.22,0,6.01.57,8.38,1.7,2.36,1.13,4.2,2.68,5.51,4.64,1.31,1.96,1.96,4.23,1.96,6.8,0,.91-.23,1.55-.68,1.92-.45.38-1.06.57-1.81.57-.7,0-1.3-.15-1.77-.45-.48-.3-.74-.78-.79-1.43-.2-1.91-.73-3.55-1.58-4.91s-2.04-2.4-3.55-3.13-3.37-1.09-5.59-1.09c-3.37,0-5.99.94-7.85,2.83-1.86,1.89-2.79,4.8-2.79,8.72v23.33c0,3.93.93,6.83,2.79,8.72,1.86,1.89,4.48,2.83,7.85,2.83s6-.94,7.89-2.83c1.89-1.89,2.83-4.79,2.83-8.72v-8.98h-10.04c-.6,0-1.07-.21-1.4-.64-.33-.43-.49-.92-.49-1.47s.16-1.06.49-1.51c.33-.45.79-.68,1.4-.68h13.21c.6,0,1.07.2,1.4.6.33.4.49.88.49,1.43v11.25c0,3.93-.71,7.07-2.11,9.44-1.41,2.37-3.3,4.08-5.66,5.13-2.36,1.06-5.03,1.59-8,1.59Z"/><path d="M945.75,724.69c-.65,0-1.23-.16-1.74-.49-.5-.33-.76-.82-.76-1.47v-51.34c0-.65.25-1.13.76-1.43.5-.3,1.08-.45,1.74-.45.6,0,1.17.15,1.7.45.53.3.79.78.79,1.43v51.34c0,.65-.26,1.15-.79,1.47s-1.09.49-1.7.49Z"/><path d="M961.99,724.69c-.55,0-1.07-.16-1.55-.49-.48-.33-.72-.82-.72-1.47v-51.26c0-.65.24-1.14.72-1.47.48-.33.99-.49,1.55-.49h26.88c.65,0,1.13.24,1.43.72.3.48.45.99.45,1.55,0,.6-.16,1.15-.49,1.62-.33.48-.79.72-1.4.72h-24.16v20.76h11.85c.6,0,1.07.23,1.4.68.33.45.49.98.49,1.59,0,.5-.15.98-.45,1.43-.3.45-.78.68-1.43.68h-11.85v20.84h24.16c.6,0,1.07.23,1.4.68.33.45.49,1.01.49,1.66,0,.55-.15,1.07-.45,1.55-.3.48-.78.72-1.43.72h-26.88Z"/><path d="M1028.27,725.14c-2.82,0-5.44-.53-7.85-1.59-2.41-1.06-4.33-2.77-5.74-5.13-1.41-2.36-2.11-5.51-2.11-9.44v-23.33c0-3.92.73-7.07,2.19-9.44s3.38-4.08,5.78-5.13c2.39-1.06,5.02-1.59,7.89-1.59,3.32,0,6.14.58,8.46,1.74s4.09,2.69,5.32,4.6c1.23,1.91,1.85,4.03,1.85,6.34,0,1.21-.21,2-.64,2.38-.43.38-1.05.57-1.85.57-.91,0-1.55-.19-1.92-.57s-.59-.82-.64-1.32c0-.8-.14-1.72-.41-2.76-.28-1.03-.78-2.04-1.51-3.02-.73-.98-1.79-1.79-3.17-2.42-1.38-.63-3.18-.94-5.4-.94-3.52,0-6.22.94-8.08,2.83-1.86,1.89-2.79,4.8-2.79,8.72v23.33c0,3.98.94,6.9,2.83,8.76,1.89,1.86,4.64,2.79,8.27,2.79,2.26,0,4.05-.31,5.36-.94,1.31-.63,2.29-1.41,2.94-2.34.65-.93,1.12-1.94,1.4-3.02.28-1.08.46-2.08.57-2.98.1-.65.34-1.14.72-1.47.38-.33.97-.49,1.77-.49.86,0,1.5.21,1.93.64.43.43.64,1.25.64,2.45,0,2.27-.63,4.37-1.89,6.3-1.26,1.94-3.06,3.5-5.4,4.68-2.34,1.18-5.17,1.78-8.49,1.78Z"/><path d="M1051.45,724.69c-.4,0-.83-.09-1.28-.26-.45-.18-.83-.43-1.13-.75-.3-.33-.45-.69-.45-1.09,0-.2.03-.38.08-.53l15.78-51.19c.2-.65.58-1.12,1.13-1.4.55-.28,1.16-.42,1.81-.42.7,0,1.35.15,1.92.45.58.3.94.75,1.1,1.36l15.7,51.19c.05.15.08.3.08.45,0,.4-.15.77-.45,1.09-.3.33-.68.59-1.13.79-.45.2-.93.3-1.43.3-.4,0-.78-.1-1.13-.3-.35-.2-.6-.53-.75-.98l-3.47-11.63h-20.84l-3.47,11.63c-.15.45-.4.78-.75.98-.35.2-.78.3-1.28.3ZM1058.17,707.48h18.35l-9.14-30.43-9.21,30.43Z"/><path d="M1103.09,724.69c-.6,0-1.17-.16-1.7-.49-.53-.33-.79-.82-.79-1.47v-19.18c0-.25-.05-.45-.15-.6l-15.63-29.97c-.1-.25-.19-.49-.26-.72-.08-.23-.11-.44-.11-.64,0-.4.15-.77.45-1.09.3-.33.67-.58,1.09-.75.43-.18.84-.26,1.25-.26s.77.13,1.09.38c.33.25.62.63.87,1.13l13.89,27.56,13.97-27.56c.3-.5.6-.88.91-1.13.3-.25.65-.38,1.06-.38.45,0,.88.09,1.28.26.4.18.74.43,1.02.75.28.33.41.69.41,1.09,0,.2-.03.41-.08.64-.05.23-.13.47-.23.72l-15.7,29.97c-.1.15-.15.35-.15.6v19.18c0,.65-.25,1.15-.75,1.47-.5.33-1.08.49-1.74.49Z"/><path d="M1143.18,725.14c-2.82,0-5.44-.53-7.85-1.59-2.42-1.06-4.33-2.77-5.74-5.13-1.41-2.36-2.11-5.51-2.11-9.44v-23.33c0-3.92.73-7.07,2.19-9.44,1.46-2.37,3.38-4.08,5.77-5.13,2.39-1.06,5.02-1.59,7.89-1.59,3.32,0,6.14.58,8.46,1.74,2.31,1.16,4.09,2.69,5.32,4.6,1.23,1.91,1.85,4.03,1.85,6.34,0,1.21-.22,2-.64,2.38-.43.38-1.04.57-1.85.57-.91,0-1.55-.19-1.92-.57-.38-.38-.59-.82-.64-1.32,0-.8-.14-1.72-.41-2.76s-.78-2.04-1.51-3.02c-.73-.98-1.79-1.79-3.17-2.42-1.39-.63-3.19-.94-5.4-.94-3.52,0-6.22.94-8.08,2.83-1.86,1.89-2.79,4.8-2.79,8.72v23.33c0,3.98.94,6.9,2.83,8.76,1.89,1.86,4.64,2.79,8.27,2.79,2.26,0,4.05-.31,5.36-.94,1.31-.63,2.29-1.41,2.95-2.34.65-.93,1.12-1.94,1.4-3.02.28-1.08.47-2.08.57-2.98.1-.65.34-1.14.72-1.47.38-.33.97-.49,1.77-.49.86,0,1.5.21,1.92.64.43.43.64,1.25.64,2.45,0,2.27-.63,4.37-1.89,6.3-1.26,1.94-3.06,3.5-5.4,4.68-2.34,1.18-5.17,1.78-8.49,1.78Z"/><path d="M1169.98,724.69c-.55,0-1.07-.16-1.55-.49-.48-.33-.72-.82-.72-1.47v-51.26c0-.65.24-1.14.72-1.47.48-.33.99-.49,1.55-.49h26.88c.65,0,1.13.24,1.43.72.3.48.45.99.45,1.55,0,.6-.16,1.15-.49,1.62-.33.48-.79.72-1.4.72h-24.16v20.76h11.85c.6,0,1.07.23,1.4.68.33.45.49.98.49,1.59,0,.5-.15.98-.45,1.43-.3.45-.78.68-1.43.68h-11.85v20.84h24.16c.6,0,1.07.23,1.4.68.33.45.49,1.01.49,1.66,0,.55-.15,1.07-.45,1.55-.3.48-.78.72-1.43.72h-26.88ZM1179.87,660.97c-.5,0-.96-.23-1.36-.68-.4-.45-.6-.93-.6-1.43,0-.7.28-1.18.83-1.43l8.46-4.61c.25-.15.45-.23.6-.23.55,0,.99.23,1.32.68.33.45.49.96.49,1.51,0,.75-.3,1.31-.91,1.66l-8.08,4.23c-.1.05-.23.11-.38.19-.15.08-.28.11-.38.11Z"/><path d="M1208.33,724.69c-.7,0-1.26-.19-1.66-.57-.4-.38-.6-.82-.6-1.32v-51.41c0-.5.2-.94.6-1.32.4-.38.96-.57,1.66-.57h13.36c2.97,0,5.65.53,8.04,1.59,2.39,1.06,4.28,2.77,5.66,5.13s2.08,5.51,2.08,9.44v22.88c0,3.93-.69,7.07-2.08,9.44s-3.27,4.08-5.66,5.13c-2.39,1.06-5.07,1.58-8.04,1.58h-13.36ZM1211.05,720.08h10.64c3.37,0,6.02-.94,7.93-2.83,1.91-1.89,2.87-4.79,2.87-8.72v-22.88c0-3.92-.96-6.83-2.87-8.72-1.91-1.89-4.53-2.83-7.85-2.83h-10.72v45.98Z"/><path d="M1250.84,724.69c-.66,0-1.24-.16-1.74-.49-.5-.33-.75-.82-.75-1.47v-51.34c0-.65.25-1.13.75-1.43.5-.3,1.08-.45,1.74-.45.6,0,1.17.15,1.7.45.53.3.79.78.79,1.43v51.34c0,.65-.26,1.15-.79,1.47-.53.33-1.09.49-1.7.49Z"/><path d="M1267.07,724.69c-.55,0-1.07-.16-1.55-.49-.48-.33-.72-.82-.72-1.47v-51.26c0-.65.24-1.14.72-1.47.48-.33.99-.49,1.55-.49h26.88c.65,0,1.13.24,1.43.72.3.48.45.99.45,1.55,0,.6-.16,1.15-.49,1.62-.33.48-.79.72-1.4.72h-24.16v20.76h11.85c.6,0,1.07.23,1.4.68.33.45.49.98.49,1.59,0,.5-.15.98-.45,1.43-.3.45-.78.68-1.43.68h-11.85v20.84h24.16c.6,0,1.07.23,1.4.68.33.45.49,1.01.49,1.66,0,.55-.15,1.07-.45,1.55-.3.48-.78.72-1.43.72h-26.88Z"/><path d="M1305.65,724.69c-.66,0-1.24-.16-1.74-.49-.5-.33-.75-.82-.75-1.47v-51.34c0-.7.25-1.19.75-1.47.5-.28,1.08-.41,1.74-.41.6,0,1.13.16,1.58.49.45.33.88.75,1.28,1.28.4.53.75,1.12,1.06,1.77l20.38,40.09v-41.75c0-.65.25-1.13.75-1.43.5-.3,1.08-.45,1.74-.45.6,0,1.17.15,1.7.45.53.3.79.78.79,1.43v51.34c0,.65-.26,1.15-.79,1.47-.53.33-1.09.49-1.7.49-.71,0-1.35-.29-1.92-.87-.58-.58-1.05-1.24-1.4-2l-20.99-40.85v41.75c0,.65-.26,1.15-.79,1.47-.53.33-1.09.49-1.7.49Z"/><path d="M1348.91,724.69c-.65,0-1.23-.16-1.74-.49-.5-.33-.76-.82-.76-1.47v-51.34c0-.7.25-1.19.76-1.47.5-.28,1.08-.41,1.74-.41.6,0,1.13.16,1.58.49.45.33.88.75,1.28,1.28.4.53.75,1.12,1.06,1.77l20.38,40.09v-41.75c0-.65.25-1.13.75-1.43.5-.3,1.08-.45,1.74-.45.6,0,1.17.15,1.7.45.53.3.79.78.79,1.43v51.34c0,.65-.26,1.15-.79,1.47s-1.09.49-1.7.49c-.7,0-1.35-.29-1.92-.87-.58-.58-1.04-1.24-1.4-2l-20.99-40.85v41.75c0,.65-.26,1.15-.79,1.47s-1.09.49-1.7.49Z"/><path d="M1391.94,724.69c-.55,0-1.07-.16-1.55-.49-.48-.33-.72-.82-.72-1.47v-51.26c0-.65.24-1.14.72-1.47.48-.33.99-.49,1.55-.49h26.88c.65,0,1.13.24,1.43.72.3.48.45.99.45,1.55,0,.6-.16,1.15-.49,1.62-.33.48-.79.72-1.4.72h-24.16v20.76h11.85c.6,0,1.07.23,1.4.68.33.45.49.98.49,1.59,0,.5-.15.98-.45,1.43-.3.45-.78.68-1.43.68h-11.85v20.84h24.16c.6,0,1.07.23,1.4.68.33.45.49,1.01.49,1.66,0,.55-.15,1.07-.45,1.55-.3.48-.78.72-1.43.72h-26.88Z"/></svg>